<svg xmlns="http://www.w3.org/2000/svg" width="760" height="360" viewBox="0 0 760 360">
  <rect width="760" height="360" fill="#ffffff"/>
  <text x="36" y="34" font-family="Arial, sans-serif" font-size="18" fill="#222">Batch pipeline, gaussian5, 12 x 256x256 PNG</text>
  <line x1="90" y1="300" x2="720" y2="300" stroke="#333"/>
  <line x1="90" y1="60" x2="90" y2="300" stroke="#333"/>
  <g font-family="Arial, sans-serif" font-size="12" fill="#444">
    <text x="60" y="304">0</text>
    <text x="48" y="264">50</text>
    <text x="42" y="224">100</text>
    <text x="42" y="184">150</text>
    <text x="42" y="144">200</text>
    <text x="42" y="104">250</text>
    <text x="42" y="64">300</text>
  </g>
  <g stroke="#d6d6d6" stroke-width="1">
    <line x1="90" y1="260" x2="720" y2="260"/>
    <line x1="90" y1="220" x2="720" y2="220"/>
    <line x1="90" y1="180" x2="720" y2="180"/>
    <line x1="90" y1="140" x2="720" y2="140"/>
    <line x1="90" y1="100" x2="720" y2="100"/>
    <line x1="90" y1="60" x2="720" y2="60"/>
  </g>
  <g font-family="Arial, sans-serif" font-size="12" text-anchor="middle">
    <rect x="115" y="64.4" width="70" height="235.6" fill="#4f83cc"/>
    <text x="150" y="56" fill="#222">294.5</text>
    <text x="150" y="322" fill="#222">seq 1</text>
    <rect x="215" y="58.1" width="70" height="241.9" fill="#4f83cc"/>
    <text x="250" y="50" fill="#222">302.3</text>
    <text x="250" y="322" fill="#222">seq 2</text>
    <rect x="315" y="89.9" width="70" height="210.1" fill="#4f83cc"/>
    <text x="350" y="82" fill="#222">262.6</text>
    <text x="350" y="322" fill="#222">seq 4</text>
    <rect x="415" y="155.6" width="70" height="144.4" fill="#2f9d75"/>
    <text x="450" y="148" fill="#222">180.5</text>
    <text x="450" y="322" fill="#222">par 1x4</text>
    <rect x="515" y="152.1" width="70" height="147.9" fill="#2f9d75"/>
    <text x="550" y="144" fill="#222">184.9</text>
    <text x="550" y="322" fill="#222">par 2x2</text>
    <rect x="615" y="146.7" width="70" height="153.3" fill="#2f9d75"/>
    <text x="650" y="139" fill="#222">191.6</text>
    <text x="650" y="322" fill="#222">par 4x1</text>
  </g>
  <text x="24" y="176" font-family="Arial, sans-serif" font-size="12" fill="#444" transform="rotate(-90 24 176)">average time, ms</text>
</svg>
